<svg width="24" height="24" viewBox="0 0 24 24" fill="none" xmlns="http://www.w3.org/2000/svg">
<path fill-rule="evenodd" clip-rule="evenodd" d="M23.0707 5.77393C22.6076 5.22747 21.9344 4.91317 21.2263 4.91317H8.69073C8.20775 4.91317 7.81576 5.31319 7.81576 5.80607C7.81576 6.29895 8.20775 6.69898 8.69073 6.69898H21.2263C21.5004 6.69898 21.6707 6.85137 21.7477 6.94185C21.8247 7.03352 21.9484 7.22758 21.9087 7.50378L20.8016 15.3125C20.7141 15.9245 20.1914 16.3864 19.5848 16.3864H6.85561C6.21046 16.3864 5.68431 15.8923 5.63064 15.2375L4.50717 1.57965C4.47451 1.17487 4.17702 0.84271 3.78502 0.773659L1.35725 0.343874C0.875431 0.265298 0.427443 0.585553 0.345778 1.07248C0.264113 1.55822 0.582605 2.02015 1.05859 2.10468L2.82022 2.41541L3.88652 15.3863C4.01719 16.9745 5.29349 18.1722 6.85561 18.1722H19.5848C21.0559 18.1722 22.3229 17.0531 22.5329 15.5685L23.6412 7.75975C23.7427 7.04304 23.5339 6.32038 23.0707 5.77393ZM4.89228 21.8629C4.89228 20.8688 5.68559 20.0592 6.65974 20.0592C7.63388 20.0592 8.42603 20.8688 8.42603 21.8629C8.42603 22.857 7.63388 23.6654 6.65974 23.6654C5.68559 23.6654 4.89228 22.857 4.89228 21.8629ZM18.0205 21.8629C18.0205 20.8688 18.8126 20.0592 19.7867 20.0592C20.7609 20.0592 21.5542 20.8688 21.5542 21.8629C21.5542 22.857 20.7609 23.6654 19.7867 23.6654C18.8126 23.6654 18.0205 22.857 18.0205 21.8629ZM18.5899 10.207C18.5899 10.6999 18.1979 11.0999 17.7149 11.0999H14.4798C13.9957 11.0999 13.6048 10.6999 13.6048 10.207C13.6048 9.71414 13.9957 9.31412 14.4798 9.31412H17.7149C18.1979 9.31412 18.5899 9.71414 18.5899 10.207Z" fill="white"/>
</svg>
