<svg width="38" height="38" viewBox="0 0 38 38" fill="none" xmlns="http://www.w3.org/2000/svg">
<path d="M19 0C15.2422 0 11.5687 1.11433 8.44417 3.20208C5.31964 5.28982 2.88436 8.25722 1.4463 11.729C0.00823236 15.2008 -0.368031 19.0211 0.365088 22.7067C1.09821 26.3924 2.90778 29.7778 5.56498 32.435C8.22218 35.0922 11.6077 36.9018 15.2933 37.6349C18.9789 38.368 22.7992 37.9918 26.271 36.5537C29.7428 35.1156 32.7102 32.6804 34.7979 29.5558C36.8857 26.4313 38 22.7578 38 19C38 13.9609 35.9982 9.12816 32.435 5.56497C28.8718 2.00178 24.0391 0 19 0ZM24.405 12.365C24.405 12.7225 24.255 12.865 23.905 12.865C23.2325 12.865 22.56 12.865 21.89 12.8925C21.22 12.92 20.855 13.225 20.855 13.925C20.84 14.675 20.855 15.41 20.855 16.175H23.7325C24.1425 16.175 24.2825 16.315 24.2825 16.7275C24.2825 17.7275 24.2825 18.7325 24.2825 19.7425C24.2825 20.15 24.1525 20.2775 23.74 20.28H20.83V28.415C20.83 28.85 20.695 28.9875 20.265 28.9875H17.135C16.7575 28.9875 16.61 28.84 16.61 28.4625V20.2925H14.125C13.735 20.2925 13.595 20.15 13.595 19.7575C13.595 18.7458 13.595 17.735 13.595 16.725C13.595 16.335 13.7425 16.1875 14.1275 16.1875H16.61V14C16.5805 13.0174 16.8163 12.045 17.2925 11.185C17.7875 10.3168 18.5808 9.65765 19.525 9.33C20.1378 9.10704 20.7854 8.99529 21.4375 9H23.895C24.2475 9 24.395 9.155 24.395 9.5C24.4075 10.4625 24.4075 11.415 24.405 12.365Z" fill="#D4D4D4"/>
</svg>
