<svg width="38" height="38" viewBox="0 0 38 38" fill="none" xmlns="http://www.w3.org/2000/svg">
<path fill-rule="evenodd" clip-rule="evenodd" d="M19 0C29.4938 0 38 8.42804 38 18.8254C38 29.2227 29.4938 37.6508 19 37.6508C8.50621 37.6508 0 29.2227 0 18.8254C0 8.42804 8.50621 0 19 0ZM15.0248 9.3296C11.4505 9.49138 9.57273 11.4842 9.41687 14.8868C9.29813 17.4628 9.29813 20.188 9.41687 22.764C9.57273 26.1666 11.4505 28.1594 15.0248 28.3212C17.6255 28.4381 20.3753 28.4381 22.9759 28.3212C26.41 28.1653 28.4206 26.3077 28.5839 22.764C28.7019 20.1873 28.7019 17.4642 28.5839 14.8868C28.4236 11.4188 26.4761 9.48844 22.9759 9.3296C20.3753 9.21267 17.6255 9.21267 15.0248 9.3296ZM22.8965 11.0496C25.4934 11.1665 26.7306 12.3917 26.8479 14.9654C26.9652 17.4878 26.9652 20.163 26.8479 22.6853C26.7269 25.3334 25.4259 26.4872 22.8965 26.6012C20.3493 26.7166 17.6514 26.7166 15.1043 26.6012C12.5741 26.4872 11.2738 25.3334 11.1521 22.6853C11.0356 20.163 11.0356 17.4878 11.1521 14.9654C11.2671 12.4578 12.4324 11.1702 15.1043 11.0496C17.6514 10.9342 20.3493 10.9342 22.8965 11.0496ZM19 22.0095C17.2254 22.0095 15.7863 20.5844 15.7863 18.8254C15.7871 17.0664 17.2254 15.6412 19 15.6412C20.7753 15.6412 22.2144 17.0664 22.2144 18.8254C22.2144 20.5837 20.7753 22.0095 19 22.0095ZM19 13.9198C16.2665 13.9198 14.0489 16.1163 14.0489 18.8254C14.0489 21.5345 16.2658 23.731 19 23.731C21.735 23.731 23.9511 21.5345 23.9511 18.8254C23.9511 16.1163 21.735 13.9198 19 13.9198ZM25.3041 13.7256C25.3041 14.3588 24.7861 14.8728 24.1471 14.8728C23.5073 14.8728 22.99 14.3595 22.99 13.7264C22.99 13.0932 23.5073 12.5799 24.1471 12.5799C24.7861 12.5799 25.3041 13.0932 25.3041 13.7256Z" fill="#0EA5E9"/>
</svg>
