<svg width="28" height="28" viewBox="0 0 28 28" fill="none" xmlns="http://www.w3.org/2000/svg">
<path d="M13.4163 25.3737C6.82467 25.3737 1.45801 20.007 1.45801 13.4154C1.45801 6.8237 6.82467 1.45703 13.4163 1.45703C20.008 1.45703 25.3747 6.8237 25.3747 13.4154C25.3747 20.007 20.008 25.3737 13.4163 25.3737ZM13.4163 3.20703C7.78134 3.20703 3.20801 7.79203 3.20801 13.4154C3.20801 19.0387 7.78134 23.6237 13.4163 23.6237C19.0513 23.6237 23.6247 19.0387 23.6247 13.4154C23.6247 7.79203 19.0513 3.20703 13.4163 3.20703Z" fill="white" stroke="white" stroke-width="0.5"/>
<path d="M25.6664 26.5414C25.4447 26.5414 25.223 26.4597 25.048 26.2847L22.7147 23.9514C22.3764 23.613 22.3764 23.053 22.7147 22.7147C23.053 22.3764 23.613 22.3764 23.9514 22.7147L26.2847 25.048C26.623 25.3864 26.623 25.9464 26.2847 26.2847C26.1097 26.4597 25.888 26.5414 25.6664 26.5414Z" fill="white" stroke="white" stroke-width="0.5"/>
</svg>
