<svg width="38" height="38" viewBox="0 0 38 38" fill="none" xmlns="http://www.w3.org/2000/svg">
<path opacity="0.8" d="M18.6613 37.0256C28.9701 37.0256 37.3226 28.7396 37.3226 18.5128C37.3226 8.28603 28.9701 0 18.6613 0C8.35248 0 0 8.28603 0 18.5128C0 28.7396 8.35248 37.0256 18.6613 37.0256ZM8.53909 18.1117L26.5317 11.2296C27.3668 10.9303 28.0961 11.4317 27.8255 12.6844L27.8271 12.6828L24.7635 27.001C24.5365 28.0161 23.9284 28.2629 23.0778 27.7847L18.4125 24.3737L16.1622 26.5242C15.9134 26.7711 15.7035 26.9794 15.2214 26.9794L15.5526 22.2694L24.199 14.5202C24.5754 14.1916 24.115 14.0065 23.619 14.3336L12.9338 21.0074L8.3276 19.5819C7.32766 19.2672 7.30589 18.59 8.53909 18.1117Z" fill="#D4D4D4"/>
</svg>
